<?xml version="1.0" encoding="utf-8"?>
<!-- Generator: Adobe Illustrator 23.1.1, SVG Export Plug-In . SVG Version: 6.00 Build 0)  -->
<svg version="1.1" id="Layer_1" xmlns="http://www.w3.org/2000/svg" xmlns:xlink="http://www.w3.org/1999/xlink" x="0px" y="0px"
	 viewBox="0 0 100 100" style="enable-background:new 0 0 100 100;" xml:space="preserve">
<style type="text/css">
	.st0{fill:#C0C8CD;}
</style>
<g>
	<path class="st0" d="M93.4,84H6.6C5.7,84,5,83.3,5,82.4v-2.7C5,78.7,5.7,78,6.6,78h86.7c0.9,0,1.6,0.7,1.6,1.6v2.7
		C95,83.3,94.3,84,93.4,84z"/>
</g>
<g>
	<path class="st0" d="M84.4,72.9H17.3c-0.9,0-1.6-0.7-1.6-1.6v-2.7c0-0.9,0.7-1.6,1.6-1.6h67.1c0.9,0,1.6,0.7,1.6,1.6v2.7
		C86,72.2,85.3,72.9,84.4,72.9z"/>
</g>
<g>
	<path class="st0" d="M33.6,35.5v35c0,0.9-0.7,1.6-1.6,1.6h-2.7c-0.9,0-1.6-0.7-1.6-1.6v-35c0-0.9,0.7-1.6,1.6-1.6H32
		C32.9,33.8,33.6,34.6,33.6,35.5z"/>
</g>
<g>
	<path class="st0" d="M74.6,35.4v35c0,0.9-0.7,1.6-1.6,1.6h-2.7c-0.9,0-1.6-0.7-1.6-1.6v-35c0-0.9,0.7-1.6,1.6-1.6H73
		C73.9,33.8,74.6,34.5,74.6,35.4z"/>
</g>
<g>
	<path class="st0" d="M53.6,35.4v35c0,0.9-0.7,1.6-1.6,1.6h-2.7c-0.9,0-1.6-0.7-1.6-1.6v-35c0-0.9,0.7-1.6,1.6-1.6H52
		C52.9,33.8,53.6,34.5,53.6,35.4z"/>
</g>
<g>
	<path class="st0" d="M51.5,12.7L15.6,38.4c-1.3,1-3.2,0.7-4.2-0.7l0,0c-1-1.3-0.7-3.2,0.7-4.2L48,7.8c1.3-1,3.2-0.7,4.2,0.7l0,0
		C53.1,9.8,52.8,11.7,51.5,12.7z"/>
</g>
<g>
	<path class="st0" d="M53.1,8.2l35,27c1.3,1,1.6,2.9,0.5,4.2l0,0c-1,1.3-2.9,1.6-4.2,0.5l-35-27c-1.3-1-1.6-2.9-0.5-4.2l0,0
		C49.9,7.4,51.8,7.1,53.1,8.2z"/>
</g>
</svg>
