<?xml version="1.0" encoding="utf-8"?>
<!-- Generator: Adobe Illustrator 23.1.1, SVG Export Plug-In . SVG Version: 6.00 Build 0)  -->
<svg version="1.1" id="Layer_1" xmlns="http://www.w3.org/2000/svg" xmlns:xlink="http://www.w3.org/1999/xlink" x="0px" y="0px"
	 viewBox="0 0 387 338" style="enable-background:new 0 0 387 338;" xml:space="preserve">
<style type="text/css">
	.st0{fill:url(#SVGID_1_);}
	.st1{fill:url(#SVGID_2_);}
	.st2{fill:url(#SVGID_3_);}
</style>
<linearGradient id="SVGID_1_" gradientUnits="userSpaceOnUse" x1="22.866" y1="255.7084" x2="508.039" y2="255.7084">
	<stop  offset="0" style="stop-color:#1CC959"/>
	<stop  offset="1" style="stop-color:#30CEF1"/>
</linearGradient>
<path class="st0" d="M85.6,410.5c-12.5-12.1-51.8-51-60.9-107c-4.6-28,0.8-45.7,3-52c2.6-7.5,12.1-34.6,37.2-47.6
	c23.9-12.4,40.9-0.8,50.5-13.4c6.9-9-0.3-16.8,0-49.1c0.2-17.3,0.4-31.7,7.4-47.6c3.8-8.5,11.7-26.4,29.7-34.2
	c16.8-7.2,33.8-1.6,52,4.5c32.8,10.8,48.1,27.7,55,22.3c6.6-5.2-6.9-21.7,0-37.2c10.9-24.4,61.7-22.4,63.9-22.3
	c10.8,0.4,44.2,3.4,86.2,40.1c19.5,17.1,112.3,98.3,96.6,217c-15,112.8-120,188.9-220,199.2C175.2,494.7,97.4,421.9,85.6,410.5z"/>
<linearGradient id="SVGID_2_" gradientUnits="userSpaceOnUse" x1="43.9262" y1="155.0732" x2="79.8857" y2="155.0732" gradientTransform="matrix(0.9876 -0.157 0.157 0.9876 -23.7322 13.6502)">
	<stop  offset="0" style="stop-color:#1CC959"/>
	<stop  offset="1" style="stop-color:#30CEF1"/>
</linearGradient>
<path class="st1" d="M45.6,166.3c5.7,10.8,29.5,9.7,34.1,0.8c4.6-8.9-8.1-28.9-20.3-27.3C49.3,141.2,40.9,157.3,45.6,166.3z"/>
<linearGradient id="SVGID_3_" gradientUnits="userSpaceOnUse" x1="211.2308" y1="34.7782" x2="237.8755" y2="34.7782" gradientTransform="matrix(0.9782 0.2076 -0.2076 0.9782 13.5949 -44.7475)">
	<stop  offset="0" style="stop-color:#1CC959"/>
	<stop  offset="1" style="stop-color:#30CEF1"/>
</linearGradient>
<path class="st2" d="M232.3,49.3c8.5-3.8,9-20.9,2.7-25.1c-6.6-4.4-22.9,4-22.7,12.9C212.5,44.8,224.7,52.8,232.3,49.3z"/>
</svg>
