<?xml version="1.0" encoding="utf-8"?>
<!-- Generator: Adobe Illustrator 23.1.1, SVG Export Plug-In . SVG Version: 6.00 Build 0)  -->
<svg version="1.1" id="Layer_1" xmlns="http://www.w3.org/2000/svg" xmlns:xlink="http://www.w3.org/1999/xlink" x="0px" y="0px"
	 viewBox="0 0 100 100" style="enable-background:new 0 0 100 100;" xml:space="preserve">
<g>
	<path d="M85,33H16c-2.8,0-5-2.2-5-5v0c0-2.8,2.2-5,5-5h69c2.8,0,5,2.2,5,5v0C90,30.8,87.8,33,85,33z"/>
</g>
<g>
	<path d="M85,54H16c-2.8,0-5-2.2-5-5v0c0-2.8,2.2-5,5-5h69c2.8,0,5,2.2,5,5v0C90,51.8,87.8,54,85,54z"/>
</g>
<g>
	<path d="M85,76H16c-2.8,0-5-2.2-5-5v0c0-2.8,2.2-5,5-5h69c2.8,0,5,2.2,5,5v0C90,73.8,87.8,76,85,76z"/>
</g>
</svg>
