<?xml version="1.0" encoding="utf-8"?>
<!-- Generator: Adobe Illustrator 23.1.1, SVG Export Plug-In . SVG Version: 6.00 Build 0)  -->
<svg version="1.1" id="Layer_1" xmlns="http://www.w3.org/2000/svg" xmlns:xlink="http://www.w3.org/1999/xlink" x="0px" y="0px"
	 viewBox="0 0 526 215" style="enable-background:new 0 0 526 215;" xml:space="preserve">
<style type="text/css">
	.st0{fill:none;stroke:#30CEF1;stroke-width:18;stroke-miterlimit:10;}
	.st1{fill:#FFFFFF;}
	.st2{fill:url(#SVGID_1_);}
	.st3{fill:url(#SVGID_2_);}
	.st4{fill:url(#SVGID_3_);}
	.st5{fill:url(#SVGID_4_);}
	.st6{fill:url(#SVGID_5_);}
	.st7{fill:url(#SVGID_6_);}
	.st8{fill:#30CEF1;}
</style>
<path class="st0" d="M213,200H35c-9.9,0-18-8-18-18V36c0-9.9,8-18,18-18H213c9.9,0,18,8,18,18V182C231,192,223,200,213,200z"/>
<rect x="219" y="50" class="st1" width="25" height="123"/>
<g>
	<g>
		<linearGradient id="SVGID_1_" gradientUnits="userSpaceOnUse" x1="79.6382" y1="102.53" x2="515.8164" y2="102.53">
			<stop  offset="0" style="stop-color:#30CEF1"/>
			<stop  offset="0.2277" style="stop-color:#30CEE8"/>
			<stop  offset="0.6061" style="stop-color:#31CFCE"/>
			<stop  offset="1" style="stop-color:#31D0AD"/>
		</linearGradient>
		<path class="st2" d="M111.8,130.5c-18.7,0-32.2-12.5-32.2-32.7S92.9,65,111.8,65c18.6,0,31.7,12.3,31.7,31.7
			c0,1.8-0.1,3.8-0.3,5.7H99c0.7,8.3,5.8,12.2,12.1,12.2c5.5,0,8.6-2.7,10.1-6.2H142C138.9,120.9,127.6,130.5,111.8,130.5z
			 M99.1,91.6h24.4c0-7-5.5-10.9-12-10.9C105.2,80.6,100.3,84.5,99.1,91.6z"/>
		<linearGradient id="SVGID_2_" gradientUnits="userSpaceOnUse" x1="79.6382" y1="102.53" x2="515.8164" y2="102.53">
			<stop  offset="0" style="stop-color:#30CEF1"/>
			<stop  offset="0.2277" style="stop-color:#30CEE8"/>
			<stop  offset="0.6061" style="stop-color:#31CFCE"/>
			<stop  offset="1" style="stop-color:#31D0AD"/>
		</linearGradient>
		<path class="st3" d="M179.2,111.9l-10.3,17.7h-21.1l21-32.5l-21.6-31.1h21.9l12.2,17.6l10.3-17.6h21.1l-21.3,32l21.9,31.6h-21.9
			L179.2,111.9z"/>
		<linearGradient id="SVGID_3_" gradientUnits="userSpaceOnUse" x1="79.6382" y1="102.53" x2="515.8164" y2="102.53">
			<stop  offset="0" style="stop-color:#30CEF1"/>
			<stop  offset="0.2277" style="stop-color:#30CEE8"/>
			<stop  offset="0.6061" style="stop-color:#31CFCE"/>
			<stop  offset="1" style="stop-color:#31D0AD"/>
		</linearGradient>
		<path class="st4" d="M259.9,65c15.6,0,28.1,12.5,28.1,32.6c0,20.1-12.4,32.8-28.1,32.8c-9.4,0-16.1-4.4-19.6-9.8v39.2h-19.5v-94
			h19.5v9C243.8,69.3,250.6,65,259.9,65z M254.1,82c-7.3,0-13.9,5.6-13.9,15.7c0,10.1,6.6,15.7,13.9,15.7c7.4,0,14-5.7,14-15.9
			C268.1,87.5,261.5,82,254.1,82z"/>
		<linearGradient id="SVGID_4_" gradientUnits="userSpaceOnUse" x1="79.6382" y1="102.53" x2="515.8164" y2="102.53">
			<stop  offset="0" style="stop-color:#30CEF1"/>
			<stop  offset="0.2277" style="stop-color:#30CEE8"/>
			<stop  offset="0.6061" style="stop-color:#31CFCE"/>
			<stop  offset="1" style="stop-color:#31D0AD"/>
		</linearGradient>
		<path class="st5" d="M322.4,65c9.5,0,16.2,4.3,19.6,9.9v-9h19.5v63.6H342v-9c-3.5,5.6-10.3,9.9-19.7,9.9
			c-15.5,0-27.9-12.8-27.9-32.8C294.4,77.6,306.8,65,322.4,65z M328.1,82c-7.3,0-13.9,5.5-13.9,15.6c0,10.1,6.6,15.9,13.9,15.9
			c7.4,0,13.9-5.6,13.9-15.7C342,87.6,335.5,82,328.1,82z"/>
		<linearGradient id="SVGID_5_" gradientUnits="userSpaceOnUse" x1="79.6382" y1="102.53" x2="515.8164" y2="102.53">
			<stop  offset="0" style="stop-color:#30CEF1"/>
			<stop  offset="0.2277" style="stop-color:#30CEE8"/>
			<stop  offset="0.6061" style="stop-color:#31CFCE"/>
			<stop  offset="1" style="stop-color:#31D0AD"/>
		</linearGradient>
		<path class="st6" d="M419.6,95c0-8.7-4.8-13.5-12.2-13.5c-7.4,0-12.2,4.8-12.2,13.5v34.6h-19.5V65.9h19.5v8.4
			c3.9-5.4,10.7-9.1,19.3-9.1c14.7,0,24.5,10,24.5,27.1v37.2h-19.4V95z"/>
		<linearGradient id="SVGID_6_" gradientUnits="userSpaceOnUse" x1="79.6382" y1="102.53" x2="515.8164" y2="102.53">
			<stop  offset="0" style="stop-color:#30CEF1"/>
			<stop  offset="0.2277" style="stop-color:#30CEE8"/>
			<stop  offset="0.6061" style="stop-color:#31CFCE"/>
			<stop  offset="1" style="stop-color:#31D0AD"/>
		</linearGradient>
		<path class="st7" d="M476.7,65c8.4,0,15.7,3.9,19.6,9.7V45.2h19.5v84.4h-19.5v-9.1c-3.5,5.8-10.3,10-19.6,10
			c-15.6,0-28.1-12.8-28.1-32.8C448.7,77.6,461.1,65,476.7,65z M482.4,82c-7.3,0-13.9,5.5-13.9,15.6c0,10.1,6.6,15.9,13.9,15.9
			c7.4,0,13.9-5.6,13.9-15.7C496.3,87.6,489.8,82,482.4,82z"/>
	</g>
</g>
<path class="st8" d="M207.9,160H86.1c-2.3,0-4.1-1.8-4.1-4.1v-9.8c0-2.3,1.8-4.1,4.1-4.1h121.8c2.3,0,4.1,1.8,4.1,4.1v9.8
	C212,158.2,210.2,160,207.9,160z"/>
</svg>
