<?xml version="1.0" encoding="utf-8"?>
<!-- Generator: Adobe Illustrator 23.1.1, SVG Export Plug-In . SVG Version: 6.00 Build 0)  -->
<svg version="1.1" id="Layer_1" xmlns="http://www.w3.org/2000/svg" xmlns:xlink="http://www.w3.org/1999/xlink" x="0px" y="0px"
	 viewBox="0 0 100 100" style="enable-background:new 0 0 100 100;" xml:space="preserve">
<style type="text/css">
	.st0{fill:#FFFFFF;}
	.st1{fill:#C0C8CD;}
</style>
<g>
	<circle class="st0" cx="35.3" cy="35.3" r="31.3"/>
	<path class="st1" d="M35.3,6c16.2,0,29.3,13.2,29.3,29.3S51.5,64.7,35.3,64.7S6,51.5,6,35.3S19.2,6,35.3,6 M35.3,2
		C16.9,2,2,16.9,2,35.3s14.9,33.3,33.3,33.3s33.3-14.9,33.3-33.3S53.7,2,35.3,2L35.3,2z"/>
</g>
<g>
	<path class="st0" d="M94.9,95.7c-0.3,0-0.5-0.1-0.8-0.3L57.6,58.8c-0.4-0.4-0.4-1.1,0-1.5l0.6-0.6c0.2-0.2,0.5-0.3,0.8-0.3l0,0
		c0.3,0,0.5,0.1,0.7,0.3l36.6,36.6c0.4,0.4,0.4,1.1,0,1.5l-0.6,0.6C95.5,95.6,95.2,95.7,94.9,95.7z"/>
	<path class="st1" d="M58.9,54.4c-0.8,0-1.6,0.3-2.2,0.9l-0.6,0.6C55,57,55,59,56.2,60.2l36.6,36.6c0.6,0.6,1.4,0.9,2.2,0.9
		s1.6-0.3,2.2-0.9l0.6-0.6c1.2-1.2,1.2-3.1,0-4.3L61.1,55.3C60.5,54.7,59.7,54.4,58.9,54.4L58.9,54.4z"/>
</g>
</svg>
