<?xml version="1.0" encoding="utf-8"?>
<!-- Generator: Adobe Illustrator 23.1.1, SVG Export Plug-In . SVG Version: 6.00 Build 0)  -->
<svg version="1.1" id="Layer_1" xmlns="http://www.w3.org/2000/svg" xmlns:xlink="http://www.w3.org/1999/xlink" x="0px" y="0px"
	 viewBox="0 0 115 32" style="enable-background:new 0 0 115 32;" xml:space="preserve">
<style type="text/css">
	.st0{fill:url(#SVGID_1_);}
	.st1{fill:url(#SVGID_2_);}
	.st2{fill:url(#SVGID_3_);}
	.st3{fill:url(#SVGID_4_);}
	.st4{fill:url(#SVGID_5_);}
	.st5{fill:url(#SVGID_6_);}
</style>
<g>
	<g>
		<linearGradient id="SVGID_1_" gradientUnits="userSpaceOnUse" x1="2.6069" y1="15.9751" x2="112.2227" y2="15.9751">
			<stop  offset="0" style="stop-color:#30CEF1"/>
			<stop  offset="0.2277" style="stop-color:#30CEE8"/>
			<stop  offset="0.6061" style="stop-color:#31CFCE"/>
			<stop  offset="1" style="stop-color:#31D0AD"/>
		</linearGradient>
		<path class="st0" d="M10.7,23c-4.7,0-8.1-3.2-8.1-8.2s3.3-8.2,8.1-8.2c4.7,0,8,3.1,8,8c0,0.5,0,0.9-0.1,1.4H7.5
			c0.2,2.1,1.5,3.1,3,3.1c1.4,0,2.1-0.7,2.6-1.5h5.2C17.5,20.6,14.7,23,10.7,23z M7.5,13.2h6.1c0-1.7-1.4-2.8-3-2.8
			C9,10.5,7.8,11.4,7.5,13.2z"/>
		<linearGradient id="SVGID_2_" gradientUnits="userSpaceOnUse" x1="2.6069" y1="15.9751" x2="112.2227" y2="15.9751">
			<stop  offset="0" style="stop-color:#30CEF1"/>
			<stop  offset="0.2277" style="stop-color:#30CEE8"/>
			<stop  offset="0.6061" style="stop-color:#31CFCE"/>
			<stop  offset="1" style="stop-color:#31D0AD"/>
		</linearGradient>
		<path class="st1" d="M27.6,18.3L25,22.8h-5.3l5.3-8.2l-5.4-7.8h5.5l3.1,4.4l2.6-4.4H36l-5.4,8.1l5.5,7.9h-5.5L27.6,18.3z"/>
		<linearGradient id="SVGID_3_" gradientUnits="userSpaceOnUse" x1="2.6069" y1="15.9751" x2="112.2227" y2="15.9751">
			<stop  offset="0" style="stop-color:#30CEF1"/>
			<stop  offset="0.2277" style="stop-color:#30CEE8"/>
			<stop  offset="0.6061" style="stop-color:#31CFCE"/>
			<stop  offset="1" style="stop-color:#31D0AD"/>
		</linearGradient>
		<path class="st2" d="M47.9,6.5c3.9,0,7,3.2,7,8.2c0,5-3.1,8.3-7,8.3c-2.3,0-4-1.1-4.9-2.5v9.9h-4.9V6.8H43V9
			C43.9,7.6,45.6,6.5,47.9,6.5z M46.5,10.8c-1.8,0-3.5,1.4-3.5,4s1.7,4,3.5,4c1.9,0,3.5-1.4,3.5-4C50,12.2,48.3,10.8,46.5,10.8z"/>
		<linearGradient id="SVGID_4_" gradientUnits="userSpaceOnUse" x1="2.6069" y1="15.9751" x2="112.2227" y2="15.9751">
			<stop  offset="0" style="stop-color:#30CEF1"/>
			<stop  offset="0.2277" style="stop-color:#30CEE8"/>
			<stop  offset="0.6061" style="stop-color:#31CFCE"/>
			<stop  offset="1" style="stop-color:#31D0AD"/>
		</linearGradient>
		<path class="st3" d="M63.6,6.5c2.4,0,4.1,1.1,4.9,2.5V6.8h4.9v16h-4.9v-2.3c-0.9,1.4-2.6,2.5-5,2.5c-3.9,0-7-3.2-7-8.3
			C56.6,9.7,59.7,6.5,63.6,6.5z M65.1,10.8c-1.8,0-3.5,1.4-3.5,3.9c0,2.5,1.7,4,3.5,4c1.9,0,3.5-1.4,3.5-4S66.9,10.8,65.1,10.8z"/>
		<linearGradient id="SVGID_5_" gradientUnits="userSpaceOnUse" x1="2.6069" y1="15.9751" x2="112.2227" y2="15.9751">
			<stop  offset="0" style="stop-color:#30CEF1"/>
			<stop  offset="0.2277" style="stop-color:#30CEE8"/>
			<stop  offset="0.6061" style="stop-color:#31CFCE"/>
			<stop  offset="1" style="stop-color:#31D0AD"/>
		</linearGradient>
		<path class="st4" d="M88,14.1c0-2.2-1.2-3.4-3.1-3.4s-3.1,1.2-3.1,3.4v8.7H77v-16h4.9v2.1c1-1.3,2.7-2.3,4.8-2.3
			c3.7,0,6.2,2.5,6.2,6.8v9.3H88V14.1z"/>
		<linearGradient id="SVGID_6_" gradientUnits="userSpaceOnUse" x1="2.6069" y1="15.9751" x2="112.2227" y2="15.9751">
			<stop  offset="0" style="stop-color:#30CEF1"/>
			<stop  offset="0.2277" style="stop-color:#30CEE8"/>
			<stop  offset="0.6061" style="stop-color:#31CFCE"/>
			<stop  offset="1" style="stop-color:#31D0AD"/>
		</linearGradient>
		<path class="st5" d="M102.4,6.5c2.1,0,4,1,4.9,2.4V1.6h4.9v21.2h-4.9v-2.3c-0.9,1.5-2.6,2.5-4.9,2.5c-3.9,0-7-3.2-7-8.3
			C95.3,9.7,98.5,6.5,102.4,6.5z M103.8,10.8c-1.8,0-3.5,1.4-3.5,3.9c0,2.5,1.7,4,3.5,4c1.9,0,3.5-1.4,3.5-4S105.7,10.8,103.8,10.8z
			"/>
	</g>
</g>
</svg>
