<?xml version="1.0" encoding="utf-8"?>
<!-- Generator: Adobe Illustrator 23.1.1, SVG Export Plug-In . SVG Version: 6.00 Build 0)  -->
<svg version="1.1" id="Layer_1" xmlns="http://www.w3.org/2000/svg" xmlns:xlink="http://www.w3.org/1999/xlink" x="0px" y="0px"
	 viewBox="0 0 56 24" style="enable-background:new 0 0 56 24;" xml:space="preserve">
<style type="text/css">
	.st0{fill:url(#SVGID_1_);}
	.st1{fill:url(#SVGID_2_);}
	.st2{fill:url(#SVGID_3_);}
	.st3{fill:url(#SVGID_4_);}
</style>
<g>
	<g>
		<linearGradient id="SVGID_1_" gradientUnits="userSpaceOnUse" x1="2.292" y1="11.6518" x2="55.6802" y2="11.6518">
			<stop  offset="0" style="stop-color:#30CEF1"/>
			<stop  offset="0.2277" style="stop-color:#30CEE8"/>
			<stop  offset="0.6061" style="stop-color:#31CFCE"/>
			<stop  offset="1" style="stop-color:#31D0AD"/>
		</linearGradient>
		<path class="st0" d="M4.1,10.8H2.3V6.8h1.8V6.3c0-4.2,2.6-6.2,7.5-6v4.2C9.6,4.4,9,4.9,9,6.6v0.1h2.6v4.1H9v11.9H4.1V10.8z"/>
		<linearGradient id="SVGID_2_" gradientUnits="userSpaceOnUse" x1="2.292" y1="11.6518" x2="55.6802" y2="11.6518">
			<stop  offset="0" style="stop-color:#30CEF1"/>
			<stop  offset="0.2277" style="stop-color:#30CEE8"/>
			<stop  offset="0.6061" style="stop-color:#31CFCE"/>
			<stop  offset="1" style="stop-color:#31D0AD"/>
		</linearGradient>
		<path class="st1" d="M13.9,1.6h4.9v21.2h-4.9V1.6z"/>
		<linearGradient id="SVGID_3_" gradientUnits="userSpaceOnUse" x1="2.292" y1="11.6518" x2="55.6802" y2="11.6518">
			<stop  offset="0" style="stop-color:#30CEF1"/>
			<stop  offset="0.2277" style="stop-color:#30CEE8"/>
			<stop  offset="0.6061" style="stop-color:#31CFCE"/>
			<stop  offset="1" style="stop-color:#31D0AD"/>
		</linearGradient>
		<path class="st2" d="M29.6,23c-4.7,0-8.3-3.2-8.3-8.2s3.6-8.2,8.3-8.2c4.7,0,8.3,3.2,8.3,8.2S34.3,23,29.6,23z M29.6,18.8
			c1.7,0,3.4-1.3,3.4-4c0-2.7-1.6-4-3.3-4c-1.8,0-3.3,1.3-3.3,4C26.4,17.5,27.9,18.8,29.6,18.8z"/>
		<linearGradient id="SVGID_4_" gradientUnits="userSpaceOnUse" x1="2.292" y1="11.6518" x2="55.6802" y2="11.6518">
			<stop  offset="0" style="stop-color:#30CEF1"/>
			<stop  offset="0.2277" style="stop-color:#30CEE8"/>
			<stop  offset="0.6061" style="stop-color:#31CFCE"/>
			<stop  offset="1" style="stop-color:#31D0AD"/>
		</linearGradient>
		<path class="st3" d="M47.7,23c-4.7,0-8.1-3.2-8.1-8.2s3.3-8.2,8.1-8.2c4.7,0,8,3.1,8,8c0,0.5,0,0.9-0.1,1.4H44.5
			c0.2,2.1,1.5,3.1,3,3.1c1.4,0,2.1-0.7,2.6-1.5h5.2C54.5,20.6,51.7,23,47.7,23z M44.5,13.2h6.1c0-1.7-1.4-2.8-3-2.8
			C46.1,10.5,44.8,11.4,44.5,13.2z"/>
	</g>
</g>
<g>
</g>
<g>
</g>
<g>
</g>
<g>
</g>
<g>
</g>
<g>
</g>
<g>
</g>
<g>
</g>
<g>
</g>
<g>
</g>
<g>
</g>
<g>
</g>
<g>
</g>
<g>
</g>
<g>
</g>
</svg>
