<?xml version="1.0" encoding="utf-8"?>
<!-- Generator: Adobe Illustrator 23.1.1, SVG Export Plug-In . SVG Version: 6.00 Build 0)  -->
<svg version="1.1" id="Layer_1" xmlns="http://www.w3.org/2000/svg" xmlns:xlink="http://www.w3.org/1999/xlink" x="0px" y="0px"
	 viewBox="0 0 100 100" style="enable-background:new 0 0 100 100;" xml:space="preserve">
<style type="text/css">
	.st0{fill:#FFFFFF;}
</style>
<path class="st0" d="M51.9,92h-4.7c-2.8,0-5.1-2.3-5.1-5.1V15.1c0-2.8,2.3-5.1,5.1-5.1h4.7c2.8,0,5.1,2.3,5.1,5.1v71.7
	C57,89.7,54.7,92,51.9,92z"/>
<path class="st0" d="M91,49.1v4.7c0,2.8-2.3,5.1-5.1,5.1H14.1C11.3,59,9,56.7,9,53.9v-4.7c0-2.8,2.3-5.1,5.1-5.1h71.7
	C88.7,44,91,46.3,91,49.1z"/>
</svg>
